<svg version="1" xmlns="http://www.w3.org/2000/svg" width="666.667" height="666.667" viewBox="0 0 500.000000 500.000000"><path d="M242.5 29.9c-4.6 2.1-7.4 5.1-9.4 9.9-1.6 3.8-2.2 41-.8 47.7 2.3 10.8 14.8 17.5 25 13.1 4.2-1.8 7-4.3 9.3-8.6 1.7-3.1 1.9-6 2.1-26.1.1-20.3 0-22.9-1.8-26.8-4.2-9.5-15-13.5-24.4-9.2zM101.7 88.5c-7.4 1.9-13.4 8.7-14.1 16.1-.7 6.9 2.5 11.7 18 27.3 15.8 15.8 19.5 18.6 25.9 19 7.8.5 16.1-5.3 18.3-12.7 3-10 1.6-12.7-16.6-31.1-8.6-8.7-16.6-16.3-17.7-16.9-4.7-2.4-9.1-2.9-13.8-1.7zM390.7 87.8c-4.2.9-8 4-22.9 18.8-16.6 16.5-18.9 20-18.1 27.4 1.1 9.1 8.7 16.3 17.6 16.6 3.2.1 6.4-.4 8.6-1.5 1.8-1 10.3-8.7 18.7-17.1 11.1-11.1 15.8-16.5 17-19.6 3.3-8.6-.9-18.9-9.2-22.5-4.4-2-8.7-2.8-11.7-2.1zM240.9 139.4c-.2.2-3.2.7-6.6 1-13.6 1.4-32.3 8.6-46.3 17.8-8.5 5.5-24.3 21.5-30.1 30.3-8.2 12.4-14.9 29.2-17.4 43-1.4 7.8-1.2 28.9.2 37.5 5.9 34.7 29.8 66.4 61.3 81.2 27.7 13.1 59.3 14.6 86.8 4.2 37.6-14.1 64.6-47.3 71.3-87.4 1.1-6.5 1.3-27.3.4-32-.3-1.4-.8-3.9-1.1-5.5-3.5-19.7-14.5-41-29.1-56.1-20.9-21.6-49.1-33.8-79.1-34.2-5.5 0-10.1 0-10.3.2zm27.1 39c13.6 3.6 23.5 9.1 33.1 18.6 4.1 4.1 8.7 9.1 10 11 8.3 11.9 12.9 26.5 13 41.5.1 5.6-1 16.6-1.8 17.8-.2.4-.7 2-.9 3.5-1.4 7.7-10.3 22.8-18.2 31-23.8 24.4-61.3 29.4-91 12.1-8.1-4.8-21.9-19-26.4-27.3-6.7-12.2-9-21.3-9.1-35.6 0-9 .4-14.3 1.7-19 7.6-27.7 29.6-48.6 57.1-54.3 8.4-1.7 24.7-1.4 32.5.7zM41.8 232.3c-8.4 2.2-14.1 10.5-13.5 19.4.6 7.4 3.9 11.9 11.2 15.3 3.6 1.6 6.5 1.8 27 1.7 22.7-.2 23-.2 26.5-2.7 4.3-3 5.6-4.5 7.6-9 2.7-6.2.7-15.8-4.2-20.1-5.5-4.8-7.8-5.2-30.1-5.3-11.7-.1-22.8.3-24.5.7zM414.5 232c-13.3 1.8-20.3 17-12.9 28.2 1.9 2.7 4.6 5.1 7.4 6.4 4.2 2.1 5.8 2.2 27.6 2l23-.1 4.2-2.8c7.3-4.8 10.1-13.1 7.3-21.4-1.9-5.6-5.8-9.6-11.1-11.4-3.5-1.2-37.9-1.9-45.5-.9zM126.4 350.7c-3.2 1.1-7.9 5.1-20 17.3-8.8 8.8-16.5 17.3-17.2 19-6.2 15.1 9.4 30.8 24.1 24.2 5.4-2.4 33.4-30.6 35.9-36 6.5-14.4-7.7-29.6-22.8-24.5zM361.5 351.1c-10.1 3.8-14.8 15.5-10 24.9 2.2 4.4 31.6 33.7 35.3 35.2 15.6 6.4 30.6-8.7 24.3-24.5-1.4-3.6-28.4-31.1-33.6-34.2-5.3-3.2-10.2-3.6-16-1.4zM244.2 399.4c-3.9 1.3-8.7 5.7-10.9 9.9-2 4-2.5 43.6-.5 50.1 1.7 5.8 5.6 9.7 11.5 11.7 8.3 2.8 16.6 0 21.4-7.3l2.8-4.2v-24c0-22.5-.1-24.3-2-27.6-4.5-7.5-14.3-11.3-22.3-8.6z"/></svg>